<?xml version="1.0" standalone="no"?><!DOCTYPE svg PUBLIC "-//W3C//DTD SVG 1.1//EN" "http://www.w3.org/Graphics/SVG/1.1/DTD/svg11.dtd"><svg t="1615621927915" class="icon" viewBox="0 0 1024 1024" version="1.1" xmlns="http://www.w3.org/2000/svg" p-id="3095" xmlns:xlink="http://www.w3.org/1999/xlink" width="64" height="64"><defs><style type="text/css"></style></defs><path d="M447.525926 512L775.585185 183.940741c18.962963-18.962963 28.444444-41.718519 28.444445-68.266667 0-24.651852-9.481481-49.303704-28.444445-68.266667S733.866667 18.962963 707.318519 18.962963c-24.651852 0-49.303704 9.481481-68.266667 28.444444L248.414815 443.733333c-18.962963 15.17037-28.444444 41.718519-28.444445 68.266667 0 22.755556 9.481481 47.407407 26.548149 66.37037l396.325925 394.42963c18.962963 18.962963 41.718519 28.444444 66.370371 28.444444 26.548148 0 49.303704-9.481481 66.37037-26.548148 18.962963-18.962963 28.444444-41.718519 28.444445-68.266666 0-24.651852-9.481481-49.303704-28.444445-68.266667L447.525926 512z" p-id="3096" fill="#bfbfbf"></path></svg>