<?xml version="1.0" standalone="no"?><!DOCTYPE svg PUBLIC "-//W3C//DTD SVG 1.1//EN" "http://www.w3.org/Graphics/SVG/1.1/DTD/svg11.dtd"><svg t="1612013731607" class="icon" viewBox="0 0 1184 1024" version="1.1" xmlns="http://www.w3.org/2000/svg" p-id="830" width="74" height="64" xmlns:xlink="http://www.w3.org/1999/xlink"><defs><style type="text/css"></style></defs><path d="M82.432 0h967.68q82.432 0 82.432 82.432v0.448q0 82.432-82.432 82.432H82.432Q0 165.312 0 82.88v-0.448Q0 0 82.432 0z m0 413.12h967.68q82.432 0 82.432 82.432v0.448q0 82.432-82.432 82.432H82.432Q0 578.432 0 496v-0.448q0-82.432 82.432-82.432z m0 412.672h967.68q82.432 0 82.432 82.432v0.448q0 82.432-82.432 82.432H82.432Q0 991.104 0 908.672v-0.448q0-82.432 82.432-82.432z" p-id="831" fill="#2c2c2c"></path></svg>