<?xml version="1.0" standalone="no"?><!DOCTYPE svg PUBLIC "-//W3C//DTD SVG 1.1//EN" "http://www.w3.org/Graphics/SVG/1.1/DTD/svg11.dtd"><svg t="1612361484700" class="icon" viewBox="0 0 1024 1024" version="1.1" xmlns="http://www.w3.org/2000/svg" p-id="837" width="128" height="128" xmlns:xlink="http://www.w3.org/1999/xlink"><defs><style type="text/css"></style></defs><path d="M512.04 333.44c37.28 0 75.68 7.6 114.08 22.64 33.92 13.28 67.04 31.84 98.48 55.28 33.76 25.12 56.4 49.12 69.44 64.72 13.76 16.48 20.8 28.48 23.84 34.88-3.12 6.48-10.32 18.4-24.16 35.04-13.2 15.84-35.92 39.92-69.52 65.2-31.36 23.68-64.48 42.4-98.24 55.76-38.4 15.2-76.72 22.88-114 22.88-37.12 0-75.44-7.68-113.76-22.72-33.84-13.28-66.88-31.92-98.32-55.44-33.68-25.2-56.4-49.2-69.6-64.88-13.84-16.56-20.96-28.48-24.08-34.88 3.04-6.4 10.08-18.4 23.84-34.96 23.68-28.56 50.8-51.12 69.36-65.04 31.36-23.52 64.48-42.24 98.32-55.6 38.48-15.2 76.96-22.88 114.32-22.88m0-51.2c-198 0-357.76 180-358.48 229.36-0.72 47.68 160.48 229.36 358.48 229.36s357.6-181.68 358.48-229.36c0.88-49.36-160.48-229.36-358.48-229.36z m0 0" p-id="838"></path><path d="M359.08 512.16c0 54.9 29.29 105.64 76.84 133.09 47.55 27.45 106.13 27.45 153.68 0 47.55-27.45 76.84-78.19 76.84-133.09 0-84.88-68.81-153.68-153.68-153.68s-153.68 68.8-153.68 153.68z m0 0" p-id="839"></path></svg>