<?xml version="1.0" standalone="no"?><!DOCTYPE svg PUBLIC "-//W3C//DTD SVG 1.1//EN" "http://www.w3.org/Graphics/SVG/1.1/DTD/svg11.dtd"><svg t="1612094545681" class="icon" viewBox="0 0 1024 1024" version="1.1" xmlns="http://www.w3.org/2000/svg" p-id="2713" id="mx_n_1612094545682" xmlns:xlink="http://www.w3.org/1999/xlink" width="64" height="64"><defs><style type="text/css"></style></defs><path d="M653.42 370.58c-12.5-12.5-32.76-12.5-45.25 0L512 466.75l-96.17-96.17c-12.5-12.5-32.76-12.5-45.25 0-12.5 12.5-12.5 32.76 0 45.25L466.75 512l-96.17 96.17c-12.5 12.5-12.5 32.76 0 45.25 12.5 12.5 32.76 12.5 45.25 0L512 557.25l96.17 96.17c12.5 12.5 32.76 12.5 45.25 0 12.5-12.5 12.5-32.76 0-45.25L557.25 512l96.17-96.17c12.5-12.49 12.5-32.75 0-45.25z" p-id="2714"></path><path d="M877 65H147c-45.21 0-82 36.79-82 82v730c0 45.21 36.79 82 82 82h730c45.21 0 82-36.79 82-82V147c0-45.21-36.79-82-82-82z m18 812c0 9.92-8.08 18-18 18H147c-9.93 0-18-8.08-18-18V147c0-9.93 8.07-18 18-18h730c9.92 0 18 8.07 18 18v730z" p-id="2715"></path></svg>